<svg id="Layer_1" enable-background="new 0 0 496.001 496.001" height="512" viewBox="0 0 496.001 496.001" width="512" xmlns="http://www.w3.org/2000/svg"><path d="m211.487 340.971c-20.18 20.179-20.184 52.845 0 73.027 32.261 32.263 88.153 9.639 88.153-36.514-.001-45.546-55.484-69.186-88.153-36.513zm36.514 56.152c-10.853 0-19.639-8.783-19.639-19.639 0-17.563 21.272-26.139 33.525-13.887 12.249 12.252 3.685 33.526-13.886 33.526zm241.878-188.65c-6.951 5.454-17.009 4.243-22.465-2.709-111.82-142.486-326.936-142.557-438.827 0-5.454 6.949-15.508 8.167-22.465 2.709-6.951-5.456-8.164-15.514-2.708-22.465 124.709-158.897 364.528-158.823 489.173 0 5.456 6.951 4.243 17.01-2.708 22.465zm-63.599 23.936c5.585 6.848 4.563 16.926-2.285 22.512-6.847 5.586-16.926 4.563-22.512-2.285-79.747-97.763-229.174-96.993-307.991 1.27-5.524 6.888-15.592 8.004-22.492 2.471-6.894-5.529-8-15.6-2.471-22.492 91.84-114.503 265.118-115.025 357.751-1.476zm-76.244 43.041c6.248 6.248 6.248 16.379 0 22.627-6.246 6.247-16.377 6.25-22.627 0-43.886-43.887-114.922-43.893-158.814 0-6.249 6.248-16.379 6.248-22.627 0-6.249-6.248-6.249-16.379 0-22.627 56.389-56.392 147.668-56.4 204.068 0z"/></svg>